<svg width="16" height="16" viewBox="0 0 16 16" fill="none" xmlns="http://www.w3.org/2000/svg">
<path d="M15.8591 3.17883L11.0066 8.00005L15.8591 12.8213C15.9468 12.6379 16 12.4352 16 12.2188V3.7813C16 3.56483 15.9468 3.36218 15.8591 3.17883Z" fill="white"/>
<path d="M14.5937 2.375H1.40624C1.18977 2.375 0.987116 2.42822 0.803772 2.51594L7.00574 8.68667C7.55412 9.23505 8.44587 9.23505 8.99424 8.68667L15.1962 2.51594C15.0129 2.42822 14.8102 2.375 14.5937 2.375Z" fill="white"/>
<path d="M0.140938 3.17883C0.0532188 3.36218 0 3.56483 0 3.7813V12.2188C0 12.4353 0.0532188 12.638 0.140938 12.8213L4.99341 8.00005L0.140938 3.17883Z" fill="white"/>
<path d="M10.3437 8.66284L9.65708 9.3495C8.74337 10.2632 7.25658 10.2632 6.34287 9.3495L5.65624 8.66284L0.803772 13.4841C0.987116 13.5718 1.18977 13.625 1.40624 13.625H14.5937C14.8102 13.625 15.0129 13.5718 15.1962 13.4841L10.3437 8.66284Z" fill="white"/>
</svg>
