<svg xmlns="http://www.w3.org/2000/svg" xmlns:xlink="http://www.w3.org/1999/xlink"><defs>
<clipPath id="clip0">
<rect width="10" height="19.0909"/>
</clipPath>
</defs><symbol id="facebook" viewBox="0 0 10 20">
<g clip-path="url(#clip0)">
<path d="M8.17432 3.16989H10V0.134432C9.68503 0.0930682 8.60178 0 7.34022 0C4.70794 0 2.90476 1.58057 2.90476 4.48557V7.15909H0V10.5525H2.90476V19.0909H6.46613V10.5533H9.2534L9.69586 7.15989H6.4653V4.82205C6.46613 3.84125 6.74277 3.16989 8.17432 3.16989Z"/>
</g>

</symbol><symbol id="instagram" viewBox="0 0 19 19">
<path d="M13.0625 0H5.9375C2.65881 0 0 2.65881 0 5.9375V13.0625C0 16.3412 2.65881 19 5.9375 19H13.0625C16.3412 19 19 16.3412 19 13.0625V5.9375C19 2.65881 16.3412 0 13.0625 0ZM17.2188 13.0625C17.2188 15.3544 15.3544 17.2188 13.0625 17.2188H5.9375C3.64563 17.2188 1.78125 15.3544 1.78125 13.0625V5.9375C1.78125 3.64563 3.64563 1.78125 5.9375 1.78125H13.0625C15.3544 1.78125 17.2188 3.64563 17.2188 5.9375V13.0625Z"/>
<path d="M9.5 4.75C6.87681 4.75 4.75 6.87681 4.75 9.5C4.75 12.1232 6.87681 14.25 9.5 14.25C12.1232 14.25 14.25 12.1232 14.25 9.5C14.25 6.87681 12.1232 4.75 9.5 4.75ZM9.5 12.4688C7.86363 12.4688 6.53125 11.1364 6.53125 9.5C6.53125 7.86244 7.86363 6.53125 9.5 6.53125C11.1364 6.53125 12.4688 7.86244 12.4688 9.5C12.4688 11.1364 11.1364 12.4688 9.5 12.4688Z"/>
<path d="M14.6063 5.02661C14.9559 5.02661 15.2393 4.74324 15.2393 4.39368C15.2393 4.04412 14.9559 3.76074 14.6063 3.76074C14.2568 3.76074 13.9734 4.04412 13.9734 4.39368C13.9734 4.74324 14.2568 5.02661 14.6063 5.02661Z"/>
</symbol><symbol id="vk" viewBox="0 0 26 15">
<path d="M21.5746 8.59588C21.1542 8.07346 21.2745 7.84103 21.5746 7.37405C21.58 7.36872 25.0499 2.64982 25.4074 1.04949L25.4096 1.04842C25.5872 0.465224 25.4096 0.0366211 24.5505 0.0366211H21.7078C20.9842 0.0366211 20.6505 0.404452 20.4717 0.815996C20.4717 0.815996 19.0244 4.22563 16.9769 6.43581C16.3161 7.07445 16.0106 7.27916 15.6498 7.27916C15.4722 7.27916 15.1959 7.07445 15.1959 6.49125V1.04842C15.1959 0.349011 14.9933 0.0366211 14.3942 0.0366211H9.92441C9.4705 0.0366211 9.20075 0.362871 9.20075 0.666731C9.20075 1.32989 10.2245 1.48236 10.3307 3.34816V7.39644C10.3307 8.28349 10.1671 8.44662 9.80416 8.44662C8.83783 8.44662 6.49241 5.02313 5.1025 1.10493C4.82191 0.344746 4.54783 0.0376872 3.81875 0.0376872H0.975C0.163583 0.0376872 0 0.405518 0 0.817062C0 1.54419 0.966333 5.1596 4.49366 9.93607C6.8445 13.1964 10.1552 14.9631 13.1668 14.9631C14.9771 14.9631 15.1981 14.5707 15.1981 13.8958C15.1981 10.7805 15.0345 10.4862 15.9412 10.4862C16.3616 10.4862 17.0852 10.6909 18.7752 12.2635C20.7068 14.1283 21.0242 14.9631 22.1054 14.9631H24.9481C25.7584 14.9631 26.169 14.5707 25.9328 13.7967C25.3922 12.1686 21.7392 8.81978 21.5746 8.59588Z"/>
</symbol></svg>