<svg xmlns="http://www.w3.org/2000/svg" xmlns:xlink="http://www.w3.org/1999/xlink"><symbol id="behance" viewBox="0 0 48 48">
<path d="M18.5757 17.5289H17.8906H13.3228V21.7161H18.2331C19.1086 21.7161 19.8699 21.4877 19.8699 19.4703C19.8699 17.4528 18.5757 17.5289 18.5757 17.5289Z"/>
<path d="M18.5757 24.7615H13.3228V30.0906H17.9286C18.0048 30.0906 18.119 30.0906 18.2712 30.0906C19.0325 30.0906 20.479 29.7861 20.479 27.5022C20.5171 24.7995 18.5757 24.7615 18.5757 24.7615Z"/>
<path d="M35.9334 0.0178223H12.0285C5.40523 0.0178223 0 5.42306 0 12.0464V35.9893C0 42.5745 5.40523 47.9798 12.0285 47.9798H35.9715C42.5948 47.9798 48 42.5745 48 35.9512V12.0464C47.9619 5.42306 42.5567 0.0178223 35.9334 0.0178223ZM28.1681 15.2438H36.1618V17.1471H28.1681V15.2438ZM24.4377 27.7672C24.4377 33.7054 18.5757 33.8957 18.5757 33.8957H13.1705H13.0182H9.13561V14.1019H12.9802H13.1324H18.5377C21.4687 14.1019 23.7906 15.7767 23.7906 19.2787C23.7906 22.7807 20.9738 22.971 20.9738 22.971C24.7042 22.933 24.4377 27.7672 24.4377 27.7672ZM38.7883 27.4246H29.1578C29.1578 31.2311 32.4314 30.9266 32.4314 30.9266C35.5147 30.9266 35.4005 28.9472 35.4005 28.9472H38.6741C38.6741 34.2763 32.3172 34.048 32.3172 34.048C24.7042 34.048 25.199 26.5491 25.199 26.5491C25.199 26.5491 25.199 19.0123 32.3172 19.0123C39.816 18.9742 38.7883 27.4246 38.7883 27.4246Z"/>
<path d="M32.3932 21.7542C29.5383 21.7542 29.1196 24.7613 29.1196 24.7613H35.21C35.21 24.7613 35.2481 21.7542 32.3932 21.7542Z"/>
</symbol><symbol id="Logo" viewBox="0 0 158 73">
<path d="M108.558 22.1899L102.582 45.1419H95.7995L92.1343 30.0588L88.3402 45.1419H81.5687L75.7432 22.1899H81.687L84.9974 38.894L89.0818 22.1899H95.2406L99.2067 38.894L102.549 22.1899H108.558Z"/>
<path d="M118.049 40.7941H125.379V45.0883H112.481V22.1899H118.07L118.049 40.7941Z"/>
<path d="M15.5959 50.4559C17.3569 51.3689 18.8162 52.7706 19.7985 54.4924C20.7791 56.3372 21.2918 58.394 21.2918 60.4827C21.2918 62.5713 20.7791 64.6281 19.7985 66.4729C18.8226 68.2088 17.3575 69.62 15.5852 70.5309C13.6209 71.521 11.4434 72.0149 9.24366 71.9694H0.64502V49.0281H9.24366C11.4465 48.9744 13.6285 49.4649 15.5959 50.4559ZM13.8332 65.4102C14.4455 64.755 14.9176 63.9821 15.2207 63.1386C15.5238 62.295 15.6514 61.3986 15.5959 60.5041C15.649 59.605 15.5203 58.7043 15.2174 57.8559C14.9146 57.0075 14.4438 56.2287 13.8332 55.5659C13.1696 54.956 12.3898 54.4858 11.5404 54.1833C10.6909 53.8808 9.78921 53.7523 8.88896 53.8053H6.23413V67.1385H8.88896C9.7866 67.1916 10.6859 67.0662 11.5346 66.7695C12.3833 66.4728 13.1646 66.0108 13.8332 65.4102Z"/>
<path d="M30.0308 53.5154V58.1531H37.5546V62.4472H30.0308V67.482H38.5004V71.9587H24.4309V49.0281H38.5004V53.5154H30.0308Z"/>
<path d="M45.9383 71.3897C44.6606 70.8978 43.5444 70.0617 42.7139 68.9742C41.8996 67.8494 41.4597 66.4976 41.4563 65.1095H47.4109C47.4127 65.4724 47.4894 65.831 47.6362 66.1629C47.783 66.4948 47.9967 66.793 48.2639 67.0387C48.5312 67.2845 48.8463 67.4727 49.1896 67.5914C49.5328 67.7102 49.8969 67.757 50.2592 67.7289C50.957 67.7669 51.647 67.5662 52.2154 67.16C52.428 66.9769 52.6012 66.7526 52.7244 66.5007C52.8477 66.2489 52.9186 65.9746 52.9326 65.6946C52.9467 65.4146 52.9037 65.1346 52.8063 64.8717C52.7089 64.6087 52.559 64.3682 52.3658 64.1648C51.9553 63.7785 51.4783 63.4694 50.9578 63.2523C50.182 62.9359 49.389 62.6635 48.5824 62.4364C47.3391 62.0688 46.1248 61.6095 44.9495 61.0623C44.008 60.5837 43.1911 59.8927 42.5634 59.0441C41.8488 58.021 41.4935 56.7904 41.553 55.5444C41.5106 54.5842 41.6993 53.6279 42.1032 52.7556C42.5072 51.8833 43.1146 51.1205 43.8747 50.531C45.6263 49.2561 47.7609 48.6161 49.926 48.7167C52.1119 48.6082 54.2695 49.2482 56.0417 50.531C56.8125 51.1288 57.4374 51.8935 57.8693 52.7675C58.3013 53.6414 58.529 54.6019 58.5353 55.5766H52.4841C52.475 55.2436 52.3967 54.9161 52.2543 54.6148C52.1118 54.3136 51.9082 54.0452 51.6564 53.8267C51.1131 53.3899 50.4294 53.1649 49.7325 53.1934C49.1403 53.1653 48.5586 53.3564 48.0987 53.7301C47.8851 53.9266 47.7182 54.1685 47.6103 54.4378C47.5024 54.7072 47.4563 54.9973 47.4753 55.2867C47.4733 55.6467 47.5731 55.9999 47.7633 56.3057C47.9535 56.6115 48.2262 56.8574 48.5502 57.0151C49.5745 57.5751 50.6553 58.0249 51.7747 58.357C53.0068 58.7624 54.2128 59.2428 55.3861 59.7956C56.3293 60.2711 57.1524 60.9537 57.7937 61.7923C58.5001 62.7707 58.8561 63.9581 58.8041 65.1632C58.8215 66.4129 58.4822 67.6417 57.826 68.7059C57.1234 69.8134 56.1209 70.6993 54.9347 71.2609C53.535 71.921 52 72.2446 50.4526 72.2056C48.9087 72.234 47.3744 71.9567 45.9383 71.3897Z"/>
<path d="M87.1688 56.2851C86.7607 55.5382 86.1397 54.9291 85.3846 54.5353C84.5357 54.1198 83.5995 53.9136 82.6545 53.9341C81.8428 53.8973 81.0329 54.0376 80.2811 54.3454C79.5293 54.6532 78.8537 55.121 78.3014 55.7162C77.1622 57.0311 76.5768 58.7354 76.6677 60.4719C76.5588 62.2825 77.1734 64.0623 78.3767 65.4209C78.9978 66.0296 79.7392 66.5025 80.5534 66.8093C81.3676 67.1161 82.2369 67.2502 83.1059 67.2029C84.3562 67.234 85.5826 66.8571 86.5991 66.1294C87.5885 65.3689 88.314 64.3176 88.6735 63.1235H81.5689V59.0441H93.7467V64.24C93.2997 65.6701 92.5686 66.9955 91.5971 68.1369C90.5574 69.3643 89.2676 70.3562 87.8137 71.0462C86.1948 71.793 84.4265 72.1602 82.6437 72.1197C80.5254 72.1576 78.4333 71.6472 76.5709 70.6382C74.8505 69.6808 73.4264 68.2696 72.4544 66.5588C71.4246 64.6973 70.902 62.5984 70.9388 60.4719C70.9023 58.3563 71.4132 56.2671 72.4221 54.4065C73.388 52.6634 74.8258 51.2273 76.5709 50.2626C78.4223 49.2442 80.5091 48.7296 82.6222 48.7704C85.0928 48.6894 87.5261 49.3881 89.5764 50.7672C91.4572 52.0874 92.788 54.0507 93.3168 56.2851H87.1688Z"/>
<path d="M117.404 71.9801H111.782L102.453 57.8203V71.9801H96.853V49.0281H102.453L111.782 63.2523V49.0281H117.372L117.404 71.9801Z"/>
<path d="M127.066 53.5154V58.1531H134.59V62.4472H127.066V67.482H135.536V71.9587H121.456V49.0281H135.536V53.5154H127.066Z"/>
<path d="M150.885 71.9801L146.112 63.3382H144.769V72.0016H139.169V49.0281H148.563C150.16 48.9851 151.746 49.3122 153.195 49.9835C154.395 50.5428 155.393 51.4574 156.055 52.6029C156.695 53.72 157.025 54.9874 157.011 56.2744C157.039 57.7944 156.548 59.2786 155.621 60.4839C154.693 61.6892 153.383 62.5442 151.906 62.9088L157.205 72.0016L150.885 71.9801ZM144.769 59.3662H148.241C149.076 59.4234 149.901 59.1539 150.541 58.6147C150.812 58.3299 151.02 57.992 151.154 57.6224C151.287 57.2528 151.342 56.8595 151.315 56.4676C151.335 56.0893 151.277 55.7107 151.144 55.3559C151.011 55.0011 150.805 54.6778 150.541 54.4065C150.226 54.1364 149.86 53.931 149.465 53.8021C149.071 53.6731 148.655 53.6231 148.241 53.655H144.769V59.3662Z"/>
<path d="M41.0264 45.0882L39.4572 44.1435C39.1885 44.0147 32.7825 40.0963 32.7825 33.2794C32.7825 29.1248 36.9528 25.5607 38.737 24.0363L41.7573 21.3632L43.2298 24.5194C43.4233 24.777 43.993 25.3782 44.4229 25.8291C47.0455 28.5988 49.0447 30.9176 48.9049 33.4404C48.561 39.1946 43.1008 43.5316 42.4559 44.004L41.0264 45.0882ZM40.5965 29.5757C38.5113 31.6584 38.1566 32.7641 38.1566 33.2794C38.2212 34.2526 38.4798 35.2031 38.9172 36.0751C39.3547 36.947 39.9621 37.7229 40.704 38.3572C42.1511 36.9987 43.1391 35.224 43.5308 33.2794C42.7176 31.9295 41.7311 30.6916 40.5965 29.5972V29.5757Z"/>
<path d="M30.2673 37.0582C34.7788 37.0582 38.436 33.4054 38.436 28.8994C38.436 24.3934 34.7788 20.7406 30.2673 20.7406C25.7559 20.7406 22.0986 24.3934 22.0986 28.8994C22.0986 33.4054 25.7559 37.0582 30.2673 37.0582Z"/>
<path d="M30.2673 37.0582C34.7788 37.0582 38.436 33.4054 38.436 28.8994C38.436 24.3934 34.7788 20.7406 30.2673 20.7406C25.7559 20.7406 22.0986 24.3934 22.0986 28.8994C22.0986 33.4054 25.7559 37.0582 30.2673 37.0582Z"/>
<path d="M25.71 12.6032C22.936 12.3847 20.2573 11.4929 17.9068 10.0053C15.8178 8.66843 14.0431 6.89591 12.7046 4.80942L17.6918 1.58884C18.5634 2.95295 19.7225 4.11066 21.0883 4.98119C22.618 5.95438 24.3639 6.53688 26.1722 6.67737L25.71 12.6032Z"/>
<path d="M26.8707 38.647C23.682 38.647 20.5649 37.7026 17.9136 35.9332C15.2623 34.1638 13.1958 31.6489 11.9755 28.7064C10.7553 25.764 10.436 22.5262 11.0581 19.4026C11.6802 16.2789 13.2157 13.4096 15.4705 11.1576C17.7252 8.90557 20.598 7.37192 23.7254 6.75058C26.8529 6.12925 30.0945 6.44814 33.0405 7.66693C35.9865 8.88573 38.5045 10.9497 40.2761 13.5978C42.0476 16.2459 42.9932 19.3592 42.9932 22.5441C42.9932 26.8149 41.2946 30.9107 38.271 33.9306C35.2475 36.9505 31.1467 38.647 26.8707 38.647ZM26.8707 12.8823C24.9575 12.8823 23.0872 13.449 21.4965 14.5106C19.9057 15.5723 18.6658 17.0813 17.9336 18.8467C17.2015 20.6122 17.0099 22.5548 17.3831 24.429C17.7564 26.3032 18.6777 28.0248 20.0306 29.376C21.3834 30.7272 23.1071 31.6474 24.9835 32.0202C26.86 32.393 28.805 32.2017 30.5726 31.4704C32.3402 30.7391 33.851 29.5008 34.9139 27.9119C35.9769 26.323 36.5442 24.455 36.5442 22.5441C36.5442 19.9816 35.525 17.5241 33.7109 15.7122C31.8968 13.9003 29.4363 12.8823 26.8707 12.8823Z"/>
<path d="M72.0137 22.5441C72.0137 20.0442 71.4309 17.5786 70.3116 15.3426C69.1923 13.1067 67.5671 11.1617 65.5647 9.66175C67.4715 8.36675 69.0981 6.70199 70.3477 4.76646L65.3605 1.54587C64.4889 2.90998 63.3298 4.06769 61.964 4.93822C60.7439 5.74931 59.3734 6.30782 57.9334 6.58072C57.2564 6.4904 56.5743 6.44378 55.8912 6.44116C51.6153 6.44116 47.5145 8.13772 44.491 11.1576C41.4674 14.1775 39.7688 18.2733 39.7688 22.5441C39.7688 26.8149 41.4674 30.9107 44.491 33.9306C47.5145 36.9505 51.6153 38.647 55.8912 38.647C58.0841 38.6492 60.2539 38.1997 62.265 37.3266C62.3402 49.5756 62.3402 59.6775 62.3402 71.9264H67.7144C67.7144 58.3356 67.8111 46.8917 67.8648 33.2794C70.5324 30.3384 72.011 26.5125 72.0137 22.5441ZM46.2178 22.5441C46.2178 19.9816 47.2369 17.5241 49.0511 15.7122C50.8652 13.9003 53.3257 12.8823 55.8912 12.8823C58.4568 12.8823 60.9173 13.9003 62.7314 15.7122C64.5455 17.5241 65.5647 19.9816 65.5647 22.5441C65.5599 23.311 65.4661 24.0747 65.2853 24.82C64.3827 23.2685 62.9939 22.0569 61.3332 21.3723C59.6725 20.6878 57.8324 20.5684 56.097 21.0326C54.3616 21.4967 52.8275 22.5187 51.7315 23.9405C50.6356 25.3624 50.0388 27.105 50.0334 28.8994C50.0362 29.375 50.083 29.8494 50.1732 30.3165C48.9501 29.4212 47.9549 28.2513 47.2678 26.9012C46.5807 25.5511 46.221 24.0586 46.2178 22.5441Z"/>
<path d="M21.4965 45.0882L13.9727 41.8676V31.1324H21.4965V45.0882Z"/>
</symbol><symbol id="message" viewBox="0 0 48 48">
<path fill-rule="evenodd" clip-rule="evenodd" d="M0 5C0 2.23858 2.23858 0 5 0H43C45.7614 0 48 2.23858 48 5V43C48 45.7614 45.7614 48 43 48H5C2.23858 48 0 45.7614 0 43V5ZM38.7359 14.9604L29.6376 24.0002L38.7359 33.04C38.9004 32.6962 39.0002 32.3162 39.0002 31.9104V16.0901C39.0002 15.6842 38.9004 15.3042 38.7359 14.9604ZM11.6368 13.4534H36.3634C36.7693 13.4534 37.1492 13.5532 37.493 13.7176L25.8643 25.2877C24.8361 26.3159 23.1641 26.3159 22.1359 25.2877L10.5072 13.7176C10.851 13.5532 11.2309 13.4534 11.6368 13.4534ZM9.26439 14.9604C9.09992 15.3042 9.00013 15.6842 9.00013 16.0901V31.9104C9.00013 32.3162 9.09992 32.6963 9.26439 33.04L18.3628 24.0002L9.26439 14.9604ZM27.1072 26.5306L28.3946 25.2431L37.493 34.2829C37.1492 34.4474 36.7693 34.5472 36.3634 34.5472H11.6368C11.2309 34.5472 10.851 34.4474 10.5072 34.2829L19.6056 25.2431L20.893 26.5306C22.6062 28.2438 25.3939 28.2438 27.1072 26.5306Z"/>
</symbol><symbol id="sub" viewBox="0 0 348 85">
<path fill-rule="evenodd" clip-rule="evenodd" d="M45.2674 0.674316H2.96509H0.965088V2.67432V82.8487V84.8487H2.96509H22V82.8487H2.96509V2.67432H45.2674V0.674316ZM102.116 84.8487H78.1163V82.8487H102.116V84.8487ZM158.232 84.8487H182.232V82.8487H158.232V84.8487ZM262.349 84.8487H238.349V82.8487H262.349V84.8487ZM318.465 84.8487H346H348V82.8487V2.67432V0.674316H346H303.698V2.67432H346V82.8487H318.465V84.8487Z"/>
</symbol><symbol id="telegram" viewBox="0 0 48 48">
<path fill-rule="evenodd" clip-rule="evenodd" d="M0 0V48H48V0H0ZM40.5958 10.6212L34.9562 37.7476C34.8234 38.3881 34.0724 38.6783 33.5425 38.2932L25.844 32.704C25.3767 32.3647 24.7394 32.3827 24.292 32.7475L20.0237 36.2268C19.5284 36.6319 18.7819 36.4062 18.5922 35.7961L15.6285 26.2645L7.97138 23.4068C7.19356 23.1154 7.18692 22.0173 7.96251 21.7186L39.3874 9.59567C40.0536 9.33806 40.7409 9.92165 40.5958 10.6212Z"/>
<path fill-rule="evenodd" clip-rule="evenodd" d="M33.0795 15.5266L18.1147 24.7433C17.5411 25.0973 17.2712 25.7899 17.4562 26.4384L19.0742 32.1236C19.1893 32.5264 19.7737 32.4853 19.8297 32.0691L20.2502 28.9514C20.3297 28.3644 20.6096 27.8234 21.0438 27.4194L33.3939 15.9393C33.6252 15.7251 33.3483 15.3615 33.0795 15.5266Z"/>
</symbol><symbol id="vk" viewBox="0 0 48 48">
<path d="M39.7053 0H8.29467C3.72414 0 0 3.70533 0 8.29467V39.7053C0 44.2759 3.70533 48 8.29467 48H39.7053C44.2759 48 48 44.2947 48 39.7053V8.29467C48 3.70533 44.2759 0 39.7053 0ZM39.2351 33.4796L34.7586 33.5361C34.7586 33.5361 33.7994 33.7241 32.5392 32.8589C30.8652 31.7116 29.2853 28.721 28.0627 29.116C26.8213 29.511 26.8589 32.2006 26.8589 32.2006C26.8589 32.2006 26.8777 32.7837 26.5768 33.0846C26.2759 33.4232 25.6552 33.4796 25.6552 33.4796H23.6426C23.6426 33.4796 19.2226 33.743 15.3292 29.6991C11.0784 25.279 7.33543 16.4953 7.33543 16.4953C7.33543 16.4953 7.12853 15.9122 7.35423 15.6489C7.61756 15.3292 8.33229 15.3103 8.33229 15.3103L13.1285 15.2727C13.1285 15.2727 13.5799 15.348 13.8997 15.5925C14.163 15.7806 14.3135 16.1567 14.3135 16.1567C14.3135 16.1567 15.0846 18.1129 16.1191 19.8809C18.1129 23.3417 19.0533 24.094 19.7304 23.7179C20.7273 23.1724 20.4263 18.8276 20.4263 18.8276C20.4263 18.8276 20.4451 17.2477 19.9185 16.5517C19.5235 16.0063 18.7712 15.8558 18.4326 15.7994C18.1693 15.7618 18.6019 15.1411 19.185 14.8589C20.0502 14.4451 21.5737 14.4075 23.3605 14.4263C24.7712 14.4451 25.1661 14.5204 25.7116 14.652C27.3668 15.047 26.8025 16.5893 26.8025 20.2947C26.8025 21.4796 26.5956 23.1348 27.442 23.6991C27.7994 23.9436 28.7022 23.7367 30.9593 19.9185C32.0314 18.1129 32.8213 15.9875 32.8213 15.9875C32.8213 15.9875 32.9906 15.6113 33.2727 15.442C33.5549 15.2727 33.931 15.3292 33.931 15.3292L38.9718 15.2915C38.9718 15.2915 40.4953 15.1035 40.7398 15.7994C41.0031 16.5141 40.1756 18.1881 38.1066 20.9342C34.721 25.4483 34.3448 25.0157 37.1473 27.6301C39.837 30.1129 40.3824 31.3354 40.4765 31.4859C41.5674 33.3292 39.2351 33.4796 39.2351 33.4796Z"/>
</symbol></svg>